<svg width="15" height="14" viewBox="0 0 15 14" fill="none" xmlns="http://www.w3.org/2000/svg">
<path d="M7.31115 0.00172393C3.503 0.00172393 0.415443 3.08928 0.415443 6.89743C0.415443 9.94448 2.39106 12.5286 5.13125 13.4406C5.47603 13.5044 5.60274 13.2906 5.60274 13.1087C5.60274 12.9441 5.59585 12.4011 5.59326 11.8253C3.67453 12.2425 3.27027 11.0116 3.27027 11.0116C2.95651 10.2143 2.50484 10.0022 2.50484 10.0022C1.87906 9.57383 2.55225 9.58331 2.55225 9.58331C3.24441 9.63158 3.60902 10.2936 3.60902 10.2936C4.22446 11.3478 5.22261 11.0426 5.61567 10.8668C5.67773 10.4211 5.85616 10.1169 6.05355 9.94447C4.52184 9.77036 2.91169 9.17905 2.91169 6.53627C2.91169 5.78378 3.18148 5.16833 3.62195 4.68563C3.55041 4.51152 3.31423 3.81074 3.68832 2.86086C3.68832 2.86086 4.26756 2.67554 5.5855 3.56767C6.13543 3.4151 6.72502 3.33839 7.31115 3.3358C7.89729 3.33839 8.48773 3.4151 9.03853 3.56767C10.3547 2.67554 10.9331 2.86086 10.9331 2.86086C11.3081 3.81074 11.0728 4.51238 11.0012 4.68563C11.4434 5.16833 11.7106 5.78378 11.7106 6.53627C11.7106 9.18508 10.097 9.76777 8.56186 9.93844C8.80925 10.1522 9.02991 10.572 9.02991 11.215C9.02991 12.1373 9.02215 12.8803 9.02215 13.107C9.02215 13.2906 9.14627 13.5052 9.49623 13.438C12.2347 12.5252 14.2077 9.94103 14.2077 6.89571C14.2077 3.08755 11.1202 0 7.31202 0L7.31115 0.00172393Z" fill="white"/>
</svg>
