<svg width="21" height="21" viewBox="0 0 21 21" fill="none" xmlns="http://www.w3.org/2000/svg">
<path d="M0 0H21V21H0V0Z" fill="white" fill-opacity="0.01"/>
<path d="M6.36111 8.75815C5.62283 7.85025 4.92952 7.65534 4.28121 8.17343C3.30876 8.95052 3.02947 11.6592 3.81203 14.0475C4.59462 16.4358 6.11629 19.6883 9.18819 19.6883C12.2601 19.6883 12.9867 16.416 14.24 14.4376C15.4932 12.4591 16.1562 10.5504 14.9278 8.17343" stroke="white" stroke-linecap="round" stroke-linejoin="round"/>
<path d="M4.8125 7.8911C4.06747 6.75623 3.48414 5.87589 3.06248 5.25009C2.43001 4.31141 4.04734 3.09822 4.8125 3.92353C5.32258 4.47374 6.00022 5.28413 6.84539 6.35464" stroke="white" stroke-linecap="round"/>
<path d="M6.57282 11.2173C6.36085 8.56444 6.53331 6.83706 7.09021 6.03517C7.92552 4.83239 9.4776 4.37634 10.939 4.37634C11.8092 4.37634 12.6038 4.74695 13.323 5.48816" stroke="white" stroke-linecap="round" stroke-linejoin="round"/>
<path fill-rule="evenodd" clip-rule="evenodd" d="M17.9376 5.51808C18.1938 6.40901 17.7754 7.22298 16.4869 7.4073C15.1984 7.59161 14.2324 8.23951 13.5357 8.78455C12.839 9.32958 11.593 10.9832 11.347 11.8135C11.101 12.6437 9.69509 11.8802 9.31748 11.5487C8.93987 11.2172 8.56865 10.4915 9.31748 9.73248C10.0663 8.97346 9.90425 8.822 9.90425 8.05226C9.90425 7.28256 14.0001 4.73649 16.3069 4.50365C16.8196 4.47373 17.6814 4.62711 17.9376 5.51808Z" stroke="white"/>
<path d="M10.0659 1.75006V4.05249" stroke="white" stroke-linecap="round"/>
<path d="M8.88414 4.68904C7.56385 3.02984 6.49928 2.1038 5.69048 1.91092" stroke="white" stroke-linecap="round"/>
<path d="M7.4392 3.07516L7.87254 1.29568" stroke="white" stroke-linecap="round"/>
<path d="M15.5806 4.68887C15.4396 5.17209 15.4396 5.62517 15.5806 6.04805C15.7216 6.47099 16.0236 6.92406 16.4868 7.40724" stroke="white" stroke-linecap="round"/>
</svg>
