<svg width="15" height="14" viewBox="0 0 15 14" fill="none" xmlns="http://www.w3.org/2000/svg">
<path d="M5.54898 4.26315H8.27492V5.66011H8.31433C8.69362 4.97937 9.62164 4.26315 11.0058 4.26315C13.8835 4.26315 14.4154 6.05418 14.4154 8.38409V13.1296H11.5732V8.92297C11.5732 7.92008 11.5526 6.62853 10.0955 6.62853C8.61579 6.62853 8.3892 7.72107 8.3892 8.85007V13.1296H5.54898V4.26315Z" fill="white"/>
<path d="M0.623161 4.26315H3.57865V13.1296H0.623161V4.26315Z" fill="white"/>
<path d="M3.57865 1.80025C3.57865 2.61597 2.91662 3.278 2.10091 3.278C1.28519 3.278 0.623161 2.61597 0.623161 1.80025C0.623161 0.984539 1.28519 0.32251 2.10091 0.32251C2.91662 0.32251 3.57865 0.984539 3.57865 1.80025Z" fill="white"/>
</svg>
