<svg width="14" height="12" viewBox="0 0 14 12" fill="none" xmlns="http://www.w3.org/2000/svg">
<path d="M14 1.44849C13.4933 1.67515 12.9469 1.82596 12.3764 1.89318C12.9607 1.54329 13.4079 0.988289 13.6208 0.328148C13.0744 0.651324 12.4677 0.88832 11.8248 1.015C11.3077 0.465175 10.5726 0.123901 9.75908 0.123901C8.19663 0.123901 6.93151 1.38989 6.93151 2.95147C6.93151 3.1721 6.95564 3.38755 7.0039 3.59524C4.6529 3.47631 2.5682 2.3508 1.17294 0.638397C0.930778 1.05551 0.790304 1.54329 0.790304 2.06037C0.790304 3.0411 1.28843 3.90807 2.04767 4.41395C1.58402 4.40016 1.14795 4.27089 0.765311 4.06148V4.09681C0.765311 5.46794 1.74001 6.61241 3.0353 6.87095C2.7983 6.93559 2.54752 6.97092 2.28898 6.97092C2.10628 6.97092 1.93047 6.95196 1.75552 6.92007C2.11662 8.043 3.16112 8.86171 4.39781 8.88584C3.42828 9.64509 2.21055 10.0975 0.883378 10.0975C0.654139 10.0975 0.430932 10.0837 0.207726 10.057C1.46251 10.862 2.94912 11.3282 4.54604 11.3282C9.74874 11.3282 12.5961 7.01659 12.5961 3.2781C12.5961 3.154 12.5935 3.03335 12.5884 2.91183C13.1408 2.51626 13.62 2.01728 13.9991 1.44935L14 1.44849Z" fill="white"/>
</svg>
